<svg xmlns="http://www.w3.org/2000/svg" width="128" height="128" viewBox="0 0 128 128">
  <defs>
    <linearGradient id="slimeGradient" x1="0%" y1="0%" x2="100%" y2="100%">
      <stop offset="0%" style="stop-color:#7ED957;stop-opacity:1" />
      <stop offset="100%" style="stop-color:#228B22;stop-opacity:1" />
    </linearGradient>
    <radialGradient id="eyeGradient" cx="50%" cy="50%" r="50%" fx="30%" fy="30%">
      <stop offset="0%" style="stop-color:#FFFFFF;stop-opacity:1" />
      <stop offset="100%" style="stop-color:#E0E0E0;stop-opacity:1" />
    </radialGradient>
  </defs>
  <ellipse cx="64" cy="76" rx="50" ry="35" fill="url(#slimeGradient)" />
  <ellipse cx="64" cy="70" rx="45" ry="30" fill="#98FB98" opacity="0.4" />
  <ellipse cx="35" cy="95" rx="12" ry="8" fill="url(#slimeGradient)" />
  <ellipse cx="64" cy="100" rx="15" ry="10" fill="url(#slimeGradient)" />
  <ellipse cx="93" cy="95" rx="12" ry="8" fill="url(#slimeGradient)" />
  <ellipse cx="46" cy="60" rx="14" ry="16" fill="url(#eyeGradient)" />
  <ellipse cx="82" cy="60" rx="14" ry="16" fill="url(#eyeGradient)" />
  <circle cx="46" cy="60" r="8" fill="#333333" />
  <circle cx="82" cy="60" r="8" fill="#333333" />
  <circle cx="43" cy="57" r="3" fill="#FFFFFF" />
  <circle cx="79" cy="57" r="3" fill="#FFFFFF" />
  <path d="M52 82 Q64 92 76 82" stroke="#333333" stroke-width="3" fill="none" stroke-linecap="round" />
  <ellipse cx="28" cy="55" rx="8" ry="5" fill="#FFB6C1" opacity="0.6" />
  <ellipse cx="100" cy="55" rx="8" ry="5" fill="#FFB6C1" opacity="0.6" />
</svg>